<?xml version="1.0" encoding="UTF-8" standalone="no"?>
<svg
   version="1.0"
   width="1015.6937pt"
   height="492pt"
   viewBox="0 0 1015.6937 492"
   preserveAspectRatio="xMidYMid"
   id="svg2"
   sodipodi:docname="black-logo.svg"
   inkscape:version="1.4 (86a8ad7, 2024-10-11)"
   xmlns:inkscape="http://www.inkscape.org/namespaces/inkscape"
   xmlns:sodipodi="http://sodipodi.sourceforge.net/DTD/sodipodi-0.dtd"
   xmlns="http://www.w3.org/2000/svg"
   xmlns:svg="http://www.w3.org/2000/svg">
  <defs
     id="defs2" />
  <sodipodi:namedview
     id="namedview2"
     pagecolor="#ffffff"
     bordercolor="#000000"
     borderopacity="0.25"
     inkscape:showpageshadow="2"
     inkscape:pageopacity="0.0"
     inkscape:pagecheckerboard="0"
     inkscape:deskcolor="#d1d1d1"
     inkscape:document-units="pt"
     inkscape:zoom="0.75662043"
     inkscape:cx="726.25583"
     inkscape:cy="301.34"
     inkscape:window-width="1920"
     inkscape:window-height="1002"
     inkscape:window-x="-8"
     inkscape:window-y="-8"
     inkscape:window-maximized="1"
     inkscape:current-layer="svg2" />
  <g
     transform="matrix(0.1,0,0,-0.1,-95.306324,623)"
     fill="#000000"
     stroke="none"
     id="g2">
    <path
       d="m 4840,6110 v -120 h -380 -380 v -55 -55 H 2541 1002 l -21,-34 c -31,-50 -36,-88 -16,-127 63,-125 358,-454 571,-638 657,-569 1414,-853 2386,-897 l 147,-7 11,-27 c 16,-39 53,-43 314,-29 121,6 256,9 298,6 156,-12 266,-56 347,-137 173,-176 217,-456 116,-756 -104,-312 -307,-574 -620,-801 -153,-111 -424,-259 -698,-382 l -67,-30 2,-353 3,-353 628,-3 629,-2 106,76 c 59,42 140,91 180,110 159,73 372,127 627,161 189,24 600,24 798,0 411,-51 732,-153 897,-286 35,-28 73,-54 85,-57 11,-2 297,-3 635,-2 l 615,3 3,361 2,360 -57,18 c -99,31 -282,123 -403,203 -201,134 -395,345 -493,539 -94,185 -130,332 -131,539 -1,218 37,380 138,590 283,592 909,1080 1898,1480 315,128 685,254 881,300 118,28 213,63 264,98 l 33,22 v 203 202 H 7975 4840 Z m 3605,-100 c 8,-26 -2,-135 -21,-223 -48,-222 -177,-458 -340,-621 -100,-99 -181,-146 -252,-146 -43,0 -44,-1 -29,-18 10,-10 17,-21 17,-25 0,-3 -46,-32 -102,-63 -249,-139 -371,-243 -453,-386 -36,-63 -58,-91 -79,-100 -29,-12 -29,-12 -8,-26 12,-8 22,-19 22,-24 0,-5 -28,-22 -62,-38 -35,-16 -58,-29 -53,-30 6,0 21,-9 34,-19 l 23,-18 -80,-159 c -101,-199 -124,-230 -223,-300 -75,-52 -83,-62 -80,-91 1,-6 -31,-31 -71,-54 -40,-23 -102,-59 -137,-80 l -63,-37 57,-12 c 31,-7 53,-15 49,-20 -5,-4 -80,-34 -167,-66 l -158,-59 38,-16 37,-16 -62,-12 -63,-12 20,-27 c 10,-15 28,-36 40,-46 36,-32 24,-36 -39,-10 -33,13 -62,24 -64,24 -3,0 -2,-24 1,-52 l 6,-53 -42,40 -41,39 v -64 l -1,-65 -29,65 c -27,60 -50,88 -50,59 0,-7 -34,-85 -75,-174 -40,-89 -96,-213 -123,-276 -27,-63 -82,-187 -122,-277 -55,-122 -71,-165 -61,-171 9,-6 0,-27 -34,-80 -26,-40 -69,-118 -96,-174 -27,-56 -49,-98 -49,-94 0,7 45,131 75,207 17,42 46,123 85,240 38,112 250,823 250,837 0,6 -22,14 -50,18 -55,8 -57,9 -35,31 13,13 8,21 -38,69 -53,53 -97,129 -83,142 4,4 25,-3 48,-15 22,-13 42,-22 44,-19 2,2 -12,46 -32,98 -29,74 -38,112 -42,179 l -4,85 83,-110 c 46,-60 96,-122 110,-138 l 25,-30 -7,59 c -10,83 -10,104 0,104 5,0 17,-20 27,-45 9,-25 20,-45 24,-45 10,0 -6,106 -36,239 -14,62 -24,120 -22,127 2,8 23,-19 47,-61 25,-41 46,-73 48,-71 2,2 -1,41 -7,86 -13,95 -11,108 42,255 89,247 117,301 249,465 110,138 179,194 414,335 235,141 322,176 748,299 277,81 402,124 544,191 314,148 396,234 447,468 7,32 22,35 31,7 z"
       id="path1" />
    <path
       d="m 7093,4954 c -119,-63 -215,-136 -324,-244 -124,-124 -217,-245 -329,-430 -127,-209 -425,-827 -516,-1070 -39,-103 -12,-57 62,104 159,348 341,663 594,1030 157,228 434,535 552,613 35,24 45,33 34,33 -2,0 -35,-16 -73,-36 z"
       id="path2" />
  </g>
</svg>
