<?xml version="1.0" encoding="UTF-8" standalone="no"?>
<svg
   version="1.0"
   width="1014.9315pt"
   height="490.64374pt"
   viewBox="0 0 1014.9315 490.64374"
   preserveAspectRatio="xMidYMid"
   id="svg2"
   sodipodi:docname="logo-white.svg"
   inkscape:version="1.4 (86a8ad7, 2024-10-11)"
   xmlns:inkscape="http://www.inkscape.org/namespaces/inkscape"
   xmlns:sodipodi="http://sodipodi.sourceforge.net/DTD/sodipodi-0.dtd"
   xmlns="http://www.w3.org/2000/svg"
   xmlns:svg="http://www.w3.org/2000/svg">
  <defs
     id="defs2" />
  <sodipodi:namedview
     id="namedview2"
     pagecolor="#ffffff"
     bordercolor="#000000"
     borderopacity="0.25"
     inkscape:showpageshadow="2"
     inkscape:pageopacity="0.0"
     inkscape:pagecheckerboard="0"
     inkscape:deskcolor="#d1d1d1"
     inkscape:document-units="pt"
     inkscape:zoom="0.53501144"
     inkscape:cx="451.39222"
     inkscape:cy="186.91189"
     inkscape:window-width="1920"
     inkscape:window-height="1002"
     inkscape:window-x="-8"
     inkscape:window-y="-8"
     inkscape:window-maximized="1"
     inkscape:current-layer="svg2" />
  <g
     transform="matrix(0.1,0,0,-0.1,-96.025987,621.97562)"
     fill="#000000"
     stroke="none"
     id="g2" />
  <path
     style="fill:#ffffff;stroke-width:1.40184"
     d="m 295.43761,489.59864 -13.66794,-0.45829 v -34.19739 -34.19737 l 20.39406,-9.85026 c 58.15773,-28.09 88.83825,-53.53724 108.35693,-89.87416 24.26767,-45.17785 17.46411,-92.15078 -15.55601,-107.4013 l -8.75796,-4.04491 H 350.7305 c -34.56226,0 -35.53733,-0.0772 -37.84966,-2.99648 -2.10144,-2.65306 -4.30143,-3.10201 -19.19553,-3.91735 C 202.22259,197.65429 129.6135,171.46342 67.989195,121.25017 39.838717,98.312347 0,53.936587 0,45.518017 0,44.307885 0.9624375,41.456625 2.1387525,39.181882 l 2.13876,-4.135905 H 158.44382 312.61014 v -5.607352 -5.60736 h 37.84966 37.84966 V 11.915632 0 h 313.31108 313.31096 v 19.402957 19.40295 l -6.6587,3.605611 c -3.6622,1.983082 -16.75191,6.454402 -29.08814,9.936254 -51.84832,14.63406 -111.73725,38.88096 -152.49682,61.740538 -34.53503,19.3686 -58.3533,37.27652 -81.66098,61.39724 -17.56417,18.17694 -28.40542,33.57859 -38.47695,54.66235 -10.42642,21.82682 -12.96502,32.82524 -13.04752,56.52821 -0.0836,24.02589 2.04885,33.85142 11.56132,53.2699 10.93208,22.31619 29.01585,42.55655 51.33578,57.45776 8.35807,5.58 32.66122,17.83588 40.17757,20.26121 l 5.23875,1.69043 -0.87757,34.59277 c -0.4827,19.02603 -1.1262,34.87646 -1.43003,35.22316 -0.30382,0.3467 -28.13032,0.66211 -61.8366,0.70092 l -61.28422,0.0706 -10.5138,-7.26739 c -12.26013,-8.47454 -26.27211,-14.38691 -45.68922,-19.27863 -29.45174,-7.41974 -39.15116,-8.42221 -81.87813,-8.46239 -35.96034,-0.0338 -41.63328,0.28433 -56.77448,3.18382 -29.95154,5.73566 -48.22882,13.02941 -67.83894,27.07191 l -7.61587,5.4536 -48.4857,-0.29339 C 330.9241,490.189 302.95497,489.85075 295.43761,489.59868 Z M 468.36636,386.81079 c 0.63245,-2.7518 9.60309,-24.07624 19.93475,-47.38766 l 18.78485,-42.38441 3.34041,6.73432 3.3404,6.73434 0.44335,-6.13459 0.44334,-6.13459 4.30215,4.03183 4.30216,4.03183 -0.73003,-5.78345 -0.73,-5.78347 5.46565,2.14697 c 6.71905,2.63933 8.35917,1.4077 4.12596,-3.09836 -3.64474,-3.87963 -2.85177,-6.40652 2.01046,-6.40652 4.4609,0 6.00005,-2.78016 2.1033,-3.79919 -2.32456,-0.6079 0.63864,-2.22632 12.01881,-6.56438 14.26935,-5.43939 19.80542,-9.26218 13.41331,-9.26218 -5.8098,0 -3.92111,-2.42257 6.9834,-8.9574 6.49414,-3.8918 11.71824,-8.0617 12.4234,-9.91644 0.66928,-1.76035 3.39426,-4.54632 6.0555,-6.19105 8.40876,-5.1969 15.54381,-14.38847 23.98977,-30.90434 6.98245,-13.65397 7.94257,-16.41426 6.50831,-18.71088 -1.94058,-3.10737 -2.16845,-2.76365 3.86788,-5.83466 3.85397,-1.96071 4.36103,-2.72276 2.94614,-4.42761 -1.365,-1.64472 -1.27008,-2.40322 0.4715,-3.76777 1.1993,-0.93967 4.53808,-5.44774 7.4195,-10.01796 8.74257,-13.86653 21.30717,-24.26574 48.75786,-40.35484 4.18005,-2.44994 6.22477,-4.50396 5.74027,-5.76641 -0.53602,-1.39693 0.8064,-2.21022 4.6674,-2.82761 18.28298,-2.92357 47.07488,-40.317038 54.8427,-71.226878 4.64978,-18.502867 4.8807,-32.83425 0.48525,-30.117682 -0.7698,0.475762 -1.8363,3.19254 -2.37,6.037267 -3.23632,17.251275 -13.6461,28.00494 -39.10995,40.40199 -18.0069,8.76663 -31.89975,13.711073 -74.48745,26.51004 -28.13329,8.454943 -38.64943,12.967113 -60.07425,25.776093 -20.11206,12.02414 -34.73311,24.63727 -45.49565,39.24768 -8.44471,11.4639 -11.10968,16.65237 -18.61506,36.24173 -4.86335,12.69352 -5.82995,16.86208 -5.80655,25.04144 0.0248,8.68787 -0.18919,9.49145 -1.86698,7.0092 -1.04228,-1.54202 -2.84871,-4.06534 -4.01428,-5.60736 -2.04372,-2.70378 -2.12003,-2.65384 -2.14191,1.40184 -0.0125,2.31304 0.89123,7.99049 2.00824,12.61655 1.90787,7.90139 2.75327,17.51144 1.20239,13.66794 -1.50388,-3.72702 -3.14202,-1.46344 -3.55076,4.90644 l -0.42727,6.65873 -9.11195,-12.2072 c -5.01157,-6.71397 -9.67219,-12.23371 -10.35691,-12.2661 -1.93857,-0.0917 0.2753,16.94503 3.37129,25.94367 3.38447,9.83713 3.38114,9.46374 0.0686,7.6909 -7.81735,-4.1837 -7.5468,1.09993 0.58682,11.46067 3.47628,4.42814 5.94401,8.89291 5.52243,9.99155 -0.53433,1.39242 0.68481,2.25762 4.07813,2.89421 l 4.8403,0.90804 -6.25053,21.34271 c -11.62633,39.69875 -21.76359,71.56687 -27.9435,87.845 -3.38394,8.91341 -6.14967,17.15246 -6.14606,18.30898 0.0102,3.24898 17.0631,-28.08464 18.36313,-33.74097 z"
     id="path5" />
  <path
     style="fill:#ffffff;stroke-width:1.40184"
     d="m 515.87682,259.6437 c 0,-2.45941 23.67997,-49.46063 32.01078,-63.53663 10.10961,-17.08153 19.81651,-29.9001 32.1325,-42.43298 9.86425,-10.03797 26.43638,-23.30305 29.11261,-23.30305 0.59366,0 -4.54185,5.83516 -11.41225,12.96702 -25.92021,26.90664 -49.40305,59.85817 -73.6546,103.35338 -4.50398,8.07788 -8.18904,13.9064 -8.18904,12.95226 z"
     id="path6" />
</svg>
