<?xml version="1.0" encoding="UTF-8" standalone="no"?>
<svg
   version="1.0"
   width="1025.5354pt"
   height="502.00513pt"
   viewBox="0 0 1025.5354 502.00513"
   preserveAspectRatio="xMidYMid"
   id="svg2"
   sodipodi:docname="logo-black-white-stroke.svg"
   inkscape:version="1.4 (86a8ad7, 2024-10-11)"
   xmlns:inkscape="http://www.inkscape.org/namespaces/inkscape"
   xmlns:sodipodi="http://sodipodi.sourceforge.net/DTD/sodipodi-0.dtd"
   xmlns="http://www.w3.org/2000/svg"
   xmlns:svg="http://www.w3.org/2000/svg">
  <defs
     id="defs2" />
  <sodipodi:namedview
     id="namedview2"
     pagecolor="#ffffff"
     bordercolor="#000000"
     borderopacity="0.25"
     inkscape:showpageshadow="2"
     inkscape:pageopacity="0.0"
     inkscape:pagecheckerboard="0"
     inkscape:deskcolor="#d1d1d1"
     inkscape:document-units="pt"
     inkscape:zoom="0.53501144"
     inkscape:cx="535.50257"
     inkscape:cy="194.38837"
     inkscape:window-width="1920"
     inkscape:window-height="1002"
     inkscape:window-x="-8"
     inkscape:window-y="-8"
     inkscape:window-maximized="1"
     inkscape:current-layer="svg2" />
  <path
     style="fill:#000000;stroke:none;stroke-width:0;stroke-dasharray:none"
     d="m 451.97522,428.99703 c -0.41816,-1.0897 2.79747,-11.70032 7.14585,-23.57914 7.18498,-19.62782 31.48897,-97.98598 31.46776,-101.45479 -0.005,-0.79734 -1.96189,-2.56138 -4.34893,-3.92005 -2.97746,-1.69476 -4.07073,-3.17222 -3.48219,-4.70595 0.53183,-1.38592 -0.81233,-4.13789 -3.53655,-7.2406 -6.01483,-6.85052 -8.90629,-13.94276 -6.74572,-16.54609 0.90391,-1.08914 2.57997,-1.98026 3.72457,-1.98026 1.23368,0 1.76622,-0.82054 1.30784,-2.01508 -2.23205,-5.81664 -3.62813,-14.11683 -4.49472,-26.72263 l -0.96368,-14.01839 5.29656,7.0092 c 2.91312,3.85506 7.47621,9.72938 10.14022,13.05405 l 4.84365,6.04485 2.74421,-2.94555 c 2.67436,-2.87059 2.68332,-3.22729 0.35198,-14.0174 -2.67453,-12.37848 -2.18371,-15.43558 2.48728,-15.49217 2.82319,-0.0342 3.76303,-1.80096 8.01645,-15.06977 6.59064,-20.55994 14.9556,-36.59403 26.60769,-51.00211 10.84028,-13.40426 20.33366,-21.01766 43.83551,-35.15474 19.87386,-11.95474 30.21238,-16.22892 64.17424,-26.531125 39.86834,-12.0939 50.98859,-16.02144 66.63464,-23.534438 24.57862,-11.802375 33.42622,-20.272462 38.05792,-36.434205 2.60775,-9.09927 4.09043,-11.296027 7.62413,-11.296027 4.35472,0 5.93512,5.14974 4.9947,16.274887 -2.25615,26.69016 -19.80218,61.178745 -40.66958,79.940298 -7.29045,6.55478 -16.00177,11.72643 -19.75237,11.72643 -1.18065,0 -2.9406,1.2956 -3.91088,2.8791 -0.97027,1.58352 -8.31082,6.78785 -16.3122,11.56518 -8.00145,4.77734 -18.51733,12.32298 -23.36871,16.7681 -9.26231,8.48671 -20.2596,24.22845 -20.2596,29.00003 0,1.54315 -1.539,3.81411 -3.42,5.04659 -1.881,1.23247 -3.10214,3.06922 -2.71363,4.08164 0.82963,2.16202 -13.37777,31.08215 -19.40506,39.50034 -2.28629,3.19319 -7.55502,8.23981 -11.70829,11.21471 -4.15328,2.9749 -7.56501,6.38956 -7.58163,7.58812 -0.0252,1.8174 -5.67381,6.04591 -16.76217,12.54807 -1.5888,0.93166 -1.6575,1.60807 -0.32628,3.21211 2.96959,3.57813 0.25806,6.32267 -10.74687,10.87764 -5.91003,2.4462 -10.98473,4.6671 -11.27712,4.93535 -0.29238,0.26824 1.14488,1.25158 3.19392,2.18518 4.64192,2.11499 2.7837,3.48476 -6.45032,4.75477 -7.42151,1.02071 -7.75828,1.40303 -4.453,5.05531 3.49839,3.86567 1.46531,6.82133 -4.69209,6.82133 h -5.311 l 0.50457,6.65874 0.50456,6.65873 -4.19575,-3.97 c -2.64483,-2.50254 -4.54226,-3.40934 -5.13318,-2.45322 -1.17942,1.90837 -9.18299,2.00855 -9.18299,0.11495 0,-0.77101 -0.5627,-1.40184 -1.25045,-1.40184 -1.71681,0 -35.19737,75.76756 -35.19737,79.65277 0,1.71609 -2.76754,7.99458 -6.15009,13.9522 -3.38256,5.95763 -7.65012,13.67077 -9.48348,17.14033 -3.42527,6.48216 -8.84265,9.2109 -10.37235,5.22457 z"
     id="path3" />
  <g
     transform="matrix(0.1,0,0,-0.1,-90.464645,628)"
     fill="#000000"
     stroke="none"
     id="g2">
    <path
       d="m 4840,6110 v -120 h -380 -380 v -55 -55 H 2541 1002 l -21,-34 c -31,-50 -36,-88 -16,-127 63,-125 358,-454 571,-638 657,-569 1414,-853 2386,-897 l 147,-7 11,-27 c 16,-39 53,-43 314,-29 121,6 256,9 298,6 156,-12 266,-56 347,-137 173,-176 217,-456 116,-756 -104,-312 -307,-574 -620,-801 -153,-111 -424,-259 -698,-382 l -67,-30 2,-353 3,-353 628,-3 629,-2 106,76 c 59,42 140,91 180,110 159,73 372,127 627,161 189,24 600,24 798,0 411,-51 732,-153 897,-286 35,-28 73,-54 85,-57 11,-2 297,-3 635,-2 l 615,3 3,361 2,360 -57,18 c -99,31 -282,123 -403,203 -201,134 -395,345 -493,539 -94,185 -130,332 -131,539 -1,218 37,380 138,590 283,592 909,1080 1898,1480 315,128 685,254 881,300 118,28 213,63 264,98 l 33,22 v 203 202 H 7975 4840 Z m 3605,-100 c 8,-26 -2,-135 -21,-223 -48,-222 -177,-458 -340,-621 -100,-99 -181,-146 -252,-146 -43,0 -44,-1 -29,-18 10,-10 17,-21 17,-25 0,-3 -46,-32 -102,-63 -249,-139 -371,-243 -453,-386 -36,-63 -58,-91 -79,-100 -29,-12 -29,-12 -8,-26 12,-8 22,-19 22,-24 0,-5 -28,-22 -62,-38 -35,-16 -58,-29 -53,-30 6,0 21,-9 34,-19 l 23,-18 -80,-159 c -101,-199 -124,-230 -223,-300 -75,-52 -83,-62 -80,-91 1,-6 -31,-31 -71,-54 -40,-23 -102,-59 -137,-80 l -63,-37 57,-12 c 31,-7 53,-15 49,-20 -5,-4 -80,-34 -167,-66 l -158,-59 38,-16 37,-16 -62,-12 -63,-12 20,-27 c 10,-15 28,-36 40,-46 36,-32 24,-36 -39,-10 -33,13 -62,24 -64,24 -3,0 -2,-24 1,-52 l 6,-53 -42,40 -41,39 v -64 l -1,-65 -29,65 c -27,60 -50,88 -50,59 0,-7 -34,-85 -75,-174 -40,-89 -96,-213 -123,-276 -27,-63 -82,-187 -122,-277 -55,-122 -71,-165 -61,-171 9,-6 0,-27 -34,-80 -26,-40 -69,-118 -96,-174 -27,-56 -49,-98 -49,-94 0,7 45,131 75,207 17,42 46,123 85,240 38,112 250,823 250,837 0,6 -22,14 -50,18 -55,8 -57,9 -35,31 13,13 8,21 -38,69 -53,53 -97,129 -83,142 4,4 25,-3 48,-15 22,-13 42,-22 44,-19 2,2 -12,46 -32,98 -29,74 -38,112 -42,179 l -4,85 83,-110 c 46,-60 96,-122 110,-138 l 25,-30 -7,59 c -10,83 -10,104 0,104 5,0 17,-20 27,-45 9,-25 20,-45 24,-45 10,0 -6,106 -36,239 -14,62 -24,120 -22,127 2,8 23,-19 47,-61 25,-41 46,-73 48,-71 2,2 -1,41 -7,86 -13,95 -11,108 42,255 89,247 117,301 249,465 110,138 179,194 414,335 235,141 322,176 748,299 277,81 402,124 544,191 314,148 396,234 447,468 7,32 22,35 31,7 z"
       id="path1"
       style="stroke:#ffffff;stroke-width:100;stroke-dasharray:none;stroke-opacity:1" />
    <path
       d="m 7093,4954 c -119,-63 -215,-136 -324,-244 -124,-124 -217,-245 -329,-430 -127,-209 -425,-827 -516,-1070 -39,-103 -12,-57 62,104 159,348 341,663 594,1030 157,228 434,535 552,613 35,24 45,33 34,33 -2,0 -35,-16 -73,-36 z"
       id="path2"
       style="stroke:#ffffff;stroke-width:100;stroke-dasharray:none;stroke-opacity:1" />
  </g>
</svg>
